<?xml version="1.0" standalone="no"?><!DOCTYPE svg PUBLIC "-//W3C//DTD SVG 1.1//EN" "http://www.w3.org/Graphics/SVG/1.1/DTD/svg11.dtd"><svg t="1582873994122" class="icon" viewBox="0 0 1024 1024" version="1.1" xmlns="http://www.w3.org/2000/svg" p-id="550" xmlns:xlink="http://www.w3.org/1999/xlink" width="128" height="128"><defs><style type="text/css"></style></defs><path d="M923.75 339.17a449 449 0 1 0 35.19 174.26 446.13 446.13 0 0 0-35.19-174.26zM511.29 897.08c-211.54 0-383.65-172.1-383.65-383.65s172.1-383.65 383.65-383.65 383.65 172.1 383.65 383.65-172.11 383.65-383.65 383.65z" p-id="551" fill="#1296db"></path><path d="M699.65 517.33c0-105.87-86.13-192-192-192s-192 86.13-192 192 86.13 192 192 192 192-86.13 192-192z m-192 128a128 128 0 1 1 128-128 128.15 128.15 0 0 1-128 128z" p-id="552" fill="#1296db"></path><path d="M512 272.67v-64a305 305 0 0 0-305 305h64a241 241 0 0 1 241-241zM682.69 683.79A239.39 239.39 0 0 1 512 754.67v64a305 305 0 0 0 305-305h-64a239.46 239.46 0 0 1-70.31 170.12z" p-id="553" fill="#1296db"></path></svg>
