<?xml version="1.0" standalone="no"?><!DOCTYPE svg PUBLIC "-//W3C//DTD SVG 1.1//EN" "http://www.w3.org/Graphics/SVG/1.1/DTD/svg11.dtd"><svg t="1579319297052" class="icon" viewBox="0 0 1024 1024" version="1.1" xmlns="http://www.w3.org/2000/svg" p-id="2196" xmlns:xlink="http://www.w3.org/1999/xlink" width="128" height="128"><defs><style type="text/css"></style></defs><path d="M956.16 290.56a42.666667 42.666667 0 0 0-46.08 8.106667l-177.066667 160.426666-186.026666-270.08a42.666667 42.666667 0 0 0-69.973334 0l-186.026666 269.653334L113.92 298.666667A42.666667 42.666667 0 0 0 42.666667 329.813333V896a128 128 0 0 0 128 128h682.666666a128 128 0 0 0 128-128V329.813333a42.666667 42.666667 0 0 0-25.173333-39.253333zM896 896a42.666667 42.666667 0 0 1-42.666667 42.666667H170.666667a42.666667 42.666667 0 0 1-42.666667-42.666667v-64h768z m0-149.333333H128V426.666667l142.08 128a42.666667 42.666667 0 0 0 33.706667 10.666666 42.666667 42.666667 0 0 0 29.866666-18.346666L512 288.426667l178.346667 258.56a42.666667 42.666667 0 0 0 29.866666 18.346666 42.666667 42.666667 0 0 0 33.706667-10.666666L896 426.666667z" p-id="2197"></path><path d="M512 64m-64 0a64 64 0 1 0 128 0 64 64 0 1 0-128 0Z" p-id="2198"></path><path d="M64 192m-64 0a64 64 0 1 0 128 0 64 64 0 1 0-128 0Z" p-id="2199"></path><path d="M960 192m-64 0a64 64 0 1 0 128 0 64 64 0 1 0-128 0Z" p-id="2200"></path></svg>