<?xml version="1.0" standalone="no"?><!DOCTYPE svg PUBLIC "-//W3C//DTD SVG 1.1//EN" "http://www.w3.org/Graphics/SVG/1.1/DTD/svg11.dtd"><svg t="1579319271843" class="icon" viewBox="0 0 1024 1024" version="1.1" xmlns="http://www.w3.org/2000/svg" p-id="1457" xmlns:xlink="http://www.w3.org/1999/xlink" width="128" height="128"><defs><style type="text/css"></style></defs><path d="M887.488 750.912c-26.176 0-50.304 7.744-71.04 20.48l-126.976-126.976C714.752 606.528 729.664 561.024 729.664 512c0-47.04-14.08-90.496-37.504-127.424l129.216-129.216c19.648 11.008 41.984 17.728 66.112 17.728C962.88 273.088 1024 211.968 1024 136.512 1024 61.12 962.88 0 887.488 0c-75.456 0-136.512 61.12-136.512 136.512 0 26.432 7.872 50.88 20.8 71.808l-124.48 124.544C605.248 296.064 550.912 273.088 490.688 273.088c-49.024 0-94.528 14.848-132.416 40.192L252.608 207.616c12.736-20.736 20.48-44.928 20.48-71.04C273.088 61.12 211.968 0 136.512 0 61.12 0 0 61.12 0 136.512c0 75.456 61.12 136.512 136.512 136.512 24.384 0 46.976-6.976 66.816-18.176l104.704 104.704C273.408 401.088 251.776 453.76 251.776 512c0 60.224 22.976 114.56 59.712 156.544l-103.232 103.232c-20.864-12.992-45.312-20.8-71.744-20.8C61.12 750.912 0 812.032 0 887.488 0 962.88 61.12 1024 136.512 1024c75.456 0 136.512-61.12 136.512-136.512 0-24.128-6.784-46.4-17.728-66.176l107.904-107.904c36.928 23.488 80.448 37.568 127.488 37.568 58.24 0 110.912-21.632 152.384-56.32l126.016 126.016c-11.2 19.776-18.176 42.368-18.176 66.816 0 75.456 61.12 136.512 136.512 136.512C962.88 1024 1024 962.88 1024 887.488 1024 812.032 962.88 750.912 887.488 750.912L887.488 750.912zM887.488 750.912" p-id="1458"></path></svg>