<?xml version="1.0" standalone="no"?><!DOCTYPE svg PUBLIC "-//W3C//DTD SVG 1.1//EN" "http://www.w3.org/Graphics/SVG/1.1/DTD/svg11.dtd"><svg t="1579319212760" class="icon" viewBox="0 0 1024 1024" version="1.1" xmlns="http://www.w3.org/2000/svg" p-id="724" width="128" height="128" xmlns:xlink="http://www.w3.org/1999/xlink"><defs><style type="text/css"></style></defs><path d="M1023.6 192.25V85.678c0-23.544-19.11-42.654-42.652-42.654H43.024C19.478 43.024 0.4 62.132 0.4 85.678v106.572h1023.2z" fill="#E6E9ED" p-id="725"></path><path d="M1023.6 980.976H0.4V128.3h1023.2v607.962z" fill="#E6E9ED" p-id="726"></path><path d="M0.4 128.3h1023.2V341.6H0.4z" fill="#5D9CEC" p-id="727"></path><path d="M85.646 85.678c0 11.772-9.526 21.294-21.296 21.294s-21.326-9.524-21.326-21.294c0-11.774 9.554-21.328 21.326-21.328s21.296 9.554 21.296 21.328z" fill="#ED5564" p-id="728"></path><path d="M149.596 85.678a21.28 21.28 0 0 1-21.294 21.294c-11.774 0-21.328-9.524-21.328-21.294 0-11.774 9.554-21.328 21.328-21.328 11.77 0 21.294 9.554 21.294 21.328z" fill="#FFCE54" p-id="729"></path><path d="M213.544 85.678c0 11.772-9.524 21.294-21.294 21.294s-21.326-9.524-21.326-21.294c0-11.774 9.554-21.328 21.326-21.328s21.294 9.554 21.294 21.328z" fill="#A0D468" p-id="730"></path><path d="M746.472 213.576H106.972c-11.772 0-21.326 9.526-21.326 21.296S95.202 256.2 106.972 256.2h639.5c11.772 0 21.326-9.554 21.326-21.326s-9.554-21.298-21.326-21.298z" fill="#F5F7FA" p-id="731"></path><path d="M916.996 213.576h-85.246c-11.772 0-21.326 9.526-21.326 21.296s9.554 21.326 21.326 21.326h85.246c11.772 0 21.326-9.554 21.326-21.326s-9.554-21.296-21.326-21.296z" fill="#A0D468" p-id="732"></path><path d="M256.2 426.722c-11.772 0-21.326 9.554-21.326 21.328v69.04l-68.792-82.56c-0.032-0.032-0.032-0.062-0.06-0.062l-0.032-0.062a21.31 21.31 0 0 0-16.394-7.682c-11.772 0-21.294 9.554-21.294 21.328v127.9c0 11.772 9.524 21.326 21.294 21.326s21.328-9.554 21.328-21.326v-69.01l68.882 82.654c3.934 4.684 9.804 7.682 16.392 7.682 11.774 0 21.296-9.554 21.296-21.326v-127.9c0.002-11.774-9.522-21.33-21.294-21.33zM426.722 469.376c11.774 0 21.328-9.554 21.328-21.326 0-11.774-9.554-21.328-21.328-21.328h-85.278c-11.772 0-21.294 9.554-21.294 21.328v127.9c0 11.772 9.524 21.326 21.294 21.326h85.278c11.774 0 21.328-9.554 21.328-21.326 0-11.774-9.554-21.328-21.328-21.328h-63.95v-21.296h42.624c11.772 0 21.326-9.554 21.326-21.326s-9.554-21.326-21.326-21.326h-42.624v-21.296h63.95zM597.246 426.722h-106.572c-11.774 0-21.328 9.554-21.328 21.328 0 11.772 9.554 21.326 21.328 21.326h31.972v106.574c0 11.772 9.556 21.326 21.328 21.326 11.774 0 21.296-9.554 21.296-21.326v-106.574h31.974c11.772 0 21.326-9.554 21.326-21.326 0.002-11.772-9.552-21.328-21.324-21.328z" fill="#8CC153" p-id="733"></path><path d="M932.078 484.616a21.314 21.314 0 0 0 0-30.164c-8.306-8.306-21.826-8.306-30.132 0l-0.032 0.032-75.348 75.348-30.132-30.132a21.342 21.342 0 0 0-30.164-0.032c-8.306 8.338-8.306 21.826 0 30.164l45.214 45.214a21.318 21.318 0 0 0 30.164 0s0-0.032 0.032-0.032l90.398-90.398z" fill="#8CC153" p-id="734"></path><path d="M671.876 703.85c0-11.772-9.554-21.326-21.326-21.326-5.902 0-11.21 2.404-15.082 6.276l-48.87 48.87-48.87-48.87a21.18 21.18 0 0 0-15.082-6.276c-11.77 0-21.326 9.554-21.326 21.326v127.9c0 11.772 9.556 21.328 21.326 21.328 11.774 0 21.328-9.556 21.328-21.328v-76.44l27.542 27.572a21.404 21.404 0 0 0 15.082 6.244c5.9 0 11.208-2.404 15.082-6.244l27.542-27.572v76.44c0 11.772 9.554 21.328 21.328 21.328 11.772 0 21.326-9.556 21.326-21.328v-127.9zM394.748 682.524c-47.088 0-85.278 38.19-85.278 85.278s38.19 85.278 85.278 85.278 85.278-38.19 85.278-85.278-38.19-85.278-85.278-85.278z m0 127.9c-23.514 0-42.624-19.112-42.624-42.624 0-23.514 19.11-42.624 42.624-42.624s42.624 19.11 42.624 42.624c0 23.512-19.11 42.624-42.624 42.624zM202.898 725.178c15.736 0 29.508 8.586 36.908 21.294h45.684c-9.46-36.752-42.874-63.95-82.592-63.95-47.088 0-85.278 38.19-85.278 85.278s38.19 85.278 85.278 85.278c39.718 0 73.13-27.2 82.592-63.952h-45.684c-7.4 12.708-21.172 21.296-36.908 21.296-23.514 0-42.624-19.112-42.624-42.624 0.002-23.51 19.11-42.62 42.624-42.62zM910.752 797.934L880.62 767.8l30.132-30.132v-0.032c8.336-8.306 8.336-21.796 0-30.132-8.308-8.338-21.796-8.338-30.132 0l-0.032 0.032-30.102 30.132-30.132-30.132-0.032-0.032c-8.306-8.338-21.828-8.338-30.132 0-8.338 8.336-8.338 21.826 0 30.132v0.032l30.132 30.132-30.132 30.132a21.314 21.314 0 0 0 0 30.164c8.304 8.304 21.826 8.304 30.132 0l0.032-0.032 30.132-30.132 30.102 30.132 0.032 0.032c8.336 8.304 21.824 8.304 30.132 0a21.316 21.316 0 0 0 0-30.162z" fill="#ED5564" p-id="735"></path></svg>